<?xml version="1.0" encoding="UTF-8" standalone="no"?>
<!-- Created with Inkscape (http://www.inkscape.org/) -->

<svg
   xmlns:dc="http://purl.org/dc/elements/1.1/"
   xmlns:cc="http://creativecommons.org/ns#"
   xmlns:rdf="http://www.w3.org/1999/02/22-rdf-syntax-ns#"
   xmlns:svg="http://www.w3.org/2000/svg"
   xmlns="http://www.w3.org/2000/svg"
   xmlns:xlink="http://www.w3.org/1999/xlink"
   xmlns:sodipodi="http://sodipodi.sourceforge.net/DTD/sodipodi-0.dtd"
   xmlns:inkscape="http://www.inkscape.org/namespaces/inkscape"
   width="555"
   height="157"
   id="svg2890"
   version="1.1"
   inkscape:version="0.47 r22583"
   sodipodi:docname="oppa.svg"
   inkscape:export-filename="oppa-300dpi.png"
   inkscape:export-xdpi="300"
   inkscape:export-ydpi="300">
  <defs
     id="defs2892">
    <inkscape:perspective
       sodipodi:type="inkscape:persp3d"
       inkscape:vp_x="0 : 526.18109 : 1"
       inkscape:vp_y="0 : 1000 : 0"
       inkscape:vp_z="744.09448 : 526.18109 : 1"
       inkscape:persp3d-origin="372.04724 : 350.78739 : 1"
       id="perspective2898" />
    <inkscape:perspective
       id="perspective2976"
       inkscape:persp3d-origin="0.5 : 0.33333333 : 1"
       inkscape:vp_z="1 : 0.5 : 1"
       inkscape:vp_y="0 : 1000 : 0"
       inkscape:vp_x="0 : 0.5 : 1"
       sodipodi:type="inkscape:persp3d" />
    <inkscape:perspective
       id="perspective3143"
       inkscape:persp3d-origin="0.5 : 0.33333333 : 1"
       inkscape:vp_z="1 : 0.5 : 1"
       inkscape:vp_y="0 : 1000 : 0"
       inkscape:vp_x="0 : 0.5 : 1"
       sodipodi:type="inkscape:persp3d" />
    <g
       id="s">
      <g
         id="c">
        <path
           transform="matrix(0.95105652,0.30901699,-0.30901699,0.95105652,0,-1)"
           d="M 0,0 V 1 H 0.5 z"
           id="t" />
        <use
           id="use3314"
           transform="scale(-1,1)"
           xlink:href="#t"
           x="0"
           y="0"
           width="744.09448"
           height="1052.3622" />
      </g>
      <g
         id="a">
        <use
           id="use3317"
           transform="matrix(0.30901699,0.95105652,-0.95105652,0.30901699,0,0)"
           xlink:href="#c"
           x="0"
           y="0"
           width="744.09448"
           height="1052.3622" />
        <use
           id="use3319"
           transform="matrix(-0.80901699,0.58778525,-0.58778525,-0.80901699,0,0)"
           xlink:href="#c"
           x="0"
           y="0"
           width="744.09448"
           height="1052.3622" />
      </g>
      <use
         id="use3321"
         transform="scale(-1,1)"
         xlink:href="#a"
         x="0"
         y="0"
         width="744.09448"
         height="1052.3622" />
    </g>
    <inkscape:perspective
       id="perspective3348"
       inkscape:persp3d-origin="405 : 180 : 1"
       inkscape:vp_z="810 : 270 : 1"
       inkscape:vp_y="0 : 1000 : 0"
       inkscape:vp_x="0 : 270 : 1"
       sodipodi:type="inkscape:persp3d" />
    <inkscape:perspective
       id="perspective3584"
       inkscape:persp3d-origin="0.5 : 0.33333333 : 1"
       inkscape:vp_z="1 : 0.5 : 1"
       inkscape:vp_y="0 : 1000 : 0"
       inkscape:vp_x="0 : 0.5 : 1"
       sodipodi:type="inkscape:persp3d" />
    <inkscape:perspective
       id="perspective3800"
       inkscape:persp3d-origin="0.5 : 0.33333333 : 1"
       inkscape:vp_z="1 : 0.5 : 1"
       inkscape:vp_y="0 : 1000 : 0"
       inkscape:vp_x="0 : 0.5 : 1"
       sodipodi:type="inkscape:persp3d" />
  </defs>
  <sodipodi:namedview
     id="base"
     pagecolor="#ffffff"
     bordercolor="#666666"
     borderopacity="1.0"
     inkscape:pageopacity="0.0"
     inkscape:pageshadow="2"
     inkscape:zoom="1.28"
     inkscape:cx="307.87174"
     inkscape:cy="150.67922"
     inkscape:document-units="px"
     inkscape:current-layer="g2978"
     showgrid="true"
     showguides="true"
     inkscape:guide-bbox="true"
     inkscape:window-width="1280"
     inkscape:window-height="750"
     inkscape:window-x="0"
     inkscape:window-y="0"
     inkscape:window-maximized="1"
     inkscape:snap-global="true">
    <sodipodi:guide
       orientation="0,1"
       position="1121.4286,57.142857"
       id="guide4362" />
    <inkscape:grid
       type="xygrid"
       id="grid3778"
       empspacing="5"
       visible="true"
       enabled="true"
       snapvisiblegridlinesonly="true" />
  </sodipodi:namedview>
  <metadata
     id="metadata2895">
    <rdf:RDF>
      <cc:Work
         rdf:about="">
        <dc:format>image/svg+xml</dc:format>
        <dc:type
           rdf:resource="http://purl.org/dc/dcmitype/StillImage" />
        <dc:title></dc:title>
      </cc:Work>
    </rdf:RDF>
  </metadata>
  <g
     inkscape:label="Layer 1"
     inkscape:groupmode="layer"
     id="layer1"
     transform="translate(0,-895.36218)">
    <g
       transform="matrix(1.25,0,0,-1.25,181.26362,1258.5432)"
       inkscape:label="oppa_logo_bez textu_negativni"
       id="g2978">
      <g
         transform="matrix(0.21873346,0,0,0.21873346,-1.0109017,166.54482)"
         inkscape:label="Praha_logo"
         id="g3145">
        <g
           transform="scale(0.1,0.1)"
           id="g3147">
          <path
             id="path3149"
             style="fill:#ed192d;fill-opacity:1;fill-rule:nonzero;stroke:none"
             d="m 0,0 2779.61,0 0,5669 L 0,5669 0,0 z" />
          <path
             id="path3151"
             style="fill:#ed192d;fill-opacity:1;fill-rule:nonzero;stroke:none"
             d="M 2889.76,0 5669,0 l 0,5669 -2779.24,0 0,-5669 z" />
          <path
             id="path3153"
             style="fill:#fddf12;fill-opacity:1;fill-rule:nonzero;stroke:none"
             d="m 925.82,5062.22 c -43.242,38.83 -108.867,58.51 -195.039,58.51 -62.265,0 -118.593,-4.76 -167.578,-14.06 l -10.078,-1.95 0,-680.4 110.781,0 c 0,0 0,239.65 0,265.16 18.321,-2.81 37.735,-3.94 56.914,-3.94 88.555,0 164.063,27.23 212.578,76.87 37.227,39.38 55.899,90.12 55.899,151.14 0,60.39 -22.5,113.2 -63.477,148.67 z M 722.852,4779.48 c -24.336,0 -43.399,1.88 -58.946,5 0,18.4 0,220 0,238.29 13.438,2.11 37.344,5 68.75,5 54.141,0 144.922,-15.47 144.922,-119.22 0,-82.03 -56.406,-129.07 -154.726,-129.07" />
          <path
             id="path3155"
             style="fill:#fddf12;fill-opacity:1;fill-rule:nonzero;stroke:none"
             d="m 1643.71,4622.52 c -16.37,67.59 -45.31,110.32 -86.44,133.02 70.31,32.07 114.45,94.88 114.45,170.85 0,54.73 -20.63,104.26 -56.64,135.83 -44.03,39.92 -108.28,58.51 -202.03,58.51 -57.85,0 -122.07,-5.78 -167.58,-15.08 l -9.92,-2.03 0,-679.3 110.78,0 c 0,0 0,266.22 0,288.87 17.77,0 68.67,0 68.67,0 70.47,0 103.75,-32.46 122.5,-119.85 20.16,-93.67 33.87,-143.86 44.92,-162.85 l 3.52,-6.17 116.21,0 -9.03,17.89 c -12.57,25.24 -29.1,93.59 -49.41,180.31 z m -83.79,294.93 c 0,-69.37 -54.14,-114.22 -137.93,-114.22 0,0 -57.42,0 -75.66,0 0,21.25 0,202.7 0,220 12.34,2.35 35.78,5.51 72.65,5.51 64.38,0 140.94,-19.34 140.94,-111.29" />
          <path
             id="path3157"
             style="fill:#fddf12;fill-opacity:1;fill-rule:nonzero;stroke:none"
             d="m 2145.7,5115.97 -234.84,-691.49 115.15,0 c 0,0 64.06,194.06 69.22,209.76 15.94,0 202.89,0 218.67,0 5.24,-15.47 71.17,-209.76 71.17,-209.76 l 118.21,0 -236.02,691.49 -121.56,0 z m 141.87,-389.77 c -26.25,0 -140.07,0 -166.17,0 9.22,27.39 59.77,176.57 59.77,176.57 9.29,27.34 15.47,54.87 22.26,82.42 6.41,-22.89 23.52,-83.44 23.52,-83.44 0,0 45.08,-130.23 60.62,-175.55" />
          <path
             id="path3159"
             style="fill:#fddf12;fill-opacity:1;fill-rule:nonzero;stroke:none"
             d="m 3316.63,4737.06 c 22.03,0 275.78,0 297.82,0 0,-22.73 0,-312.58 0,-312.58 l 111.71,0 0,691.49 -111.71,0 c 0,0 0,-256.41 0,-278.99 -22.04,0 -275.79,0 -297.82,0 0,22.58 0,278.99 0,278.99 l -111.72,0 0,-691.49 111.72,0 c 0,0 0,289.85 0,312.58" />
          <path
             id="path3161"
             style="fill:#fddf12;fill-opacity:1;fill-rule:nonzero;stroke:none"
             d="m 4224.45,5115.97 -235,-691.49 115.23,0 c 0,0 64.14,194.06 69.22,209.76 16.01,0 202.97,0 218.67,0 5.23,-15.47 71.25,-209.76 71.25,-209.76 l 118.13,0 -235.94,691.49 -121.56,0 z m 141.79,-389.77 c -26.17,0 -140.08,0 -166.17,0 9.22,27.39 59.77,176.57 59.77,176.57 9.45,27.57 15.46,55.03 22.26,82.5 6.56,-23.44 23.52,-83.52 23.52,-83.52 0.08,-0.04 45.08,-130.23 60.62,-175.55" />
          <path
             id="path3163"
             style="fill:#fddf12;fill-opacity:1;fill-rule:nonzero;stroke:none"
             d="m 925.82,3817.41 c -43.242,38.71 -108.867,58.47 -195.039,58.47 -62.265,0 -118.593,-4.76 -167.578,-14.14 l -10.078,-1.87 0,-680.4 110.781,0 c 0,0 0,239.61 0,265.24 18.321,-2.89 37.735,-4.07 56.914,-4.07 88.555,0 164.063,27.35 212.578,76.88 37.227,39.34 55.899,90.16 55.899,151.09 0,60.44 -22.5,113.21 -63.477,148.8 z M 722.852,3534.55 c -24.336,0 -43.399,1.99 -58.946,5.12 0,18.32 0,219.88 0,238.24 13.438,2.15 37.344,4.97 68.75,4.97 54.141,0 144.922,-15.47 144.922,-119.11 0,-82.15 -56.406,-129.22 -154.726,-129.22" />
          <path
             id="path3165"
             style="fill:#fddf12;fill-opacity:1;fill-rule:nonzero;stroke:none"
             d="m 1643.71,3377.75 c -16.37,67.43 -45.31,110.24 -86.37,132.86 70.24,32.22 114.38,94.92 114.38,170.82 0,54.8 -20.63,104.3 -56.64,135.98 -44.03,39.8 -108.28,58.47 -202.03,58.47 -57.85,0 -122.07,-5.78 -167.58,-15.08 l -9.92,-2.03 0,-679.3 110.78,0 c 0,0 0,266.17 0,288.83 17.77,0 68.67,0 68.67,0 70.47,0 103.75,-32.5 122.5,-119.73 20.16,-93.67 33.87,-143.94 44.92,-162.85 l 3.52,-6.25 116.21,0 -9.03,17.97 c -12.57,25.16 -29.1,93.52 -49.41,180.31 z m -83.79,294.85 c 0,-69.42 -54.14,-114.26 -137.93,-114.26 0,0 -57.42,0 -75.66,0 0,21.37 0,202.74 0,220.04 12.34,2.31 35.78,5.47 72.65,5.47 64.38,0 140.94,-19.26 140.94,-111.25" />
          <path
             id="path3167"
             style="fill:#fddf12;fill-opacity:1;fill-rule:nonzero;stroke:none"
             d="m 2145.7,3871.04 -234.84,-691.41 115.15,0 c 0,0 64.06,194.14 69.22,209.76 15.94,0 202.89,0 218.67,0 5.24,-15.5 71.17,-209.76 71.17,-209.76 l 118.21,0 -236.02,691.41 -121.56,0 z m 141.87,-389.69 c -26.25,0 -140.07,0 -166.17,0 9.22,27.34 59.77,176.56 59.77,176.56 9.22,27.11 15.47,54.77 22.26,82.35 6.41,-22.58 23.52,-83.37 23.52,-83.37 0,-0.07 45.08,-130.31 60.62,-175.54" />
          <path
             id="path3169"
             style="fill:#fddf12;fill-opacity:1;fill-rule:nonzero;stroke:none"
             d="m 3492.88,3460.57 c 0,0 114.14,0 134.46,0 0,-20.78 0,-163.17 0,-177.86 -21.88,-8.75 -58.83,-14.06 -102.35,-14.06 -150.86,0 -244.76,98.4 -244.76,256.68 0,157.82 97.97,255.71 255.62,255.71 57.27,0 102.42,-8.71 142.19,-27.46 l 12.97,-6.06 29.06,93.99 -9.53,4.61 c -30.55,14.68 -94.06,31.87 -172.66,31.87 -223.36,0 -373.36,-143.32 -373.36,-356.56 0,-104.14 35.24,-197.86 96.64,-257.19 64.54,-61.64 148.91,-91.49 257.97,-91.49 104.69,0 187.35,28.6 210.16,37.35 l 7.97,3.12 0,341.33 -244.38,0 0,-93.98" />
          <path
             id="path3171"
             style="fill:#fddf12;fill-opacity:1;fill-rule:nonzero;stroke:none"
             d="m 4033.51,3871.43 0,-405.08 c 0,-191.6 89.37,-297.19 251.64,-297.19 168.2,0 264.61,109.38 264.61,300.16 l 0,402.11 -111.72,0 0,-408.13 c 0,-130.31 -51.88,-199.22 -149.92,-199.22 -92.11,0 -142.89,70.74 -142.89,199.22 l 0,408.13 -111.72,0" />
          <path
             id="path3173"
             style="fill:#fddf12;fill-opacity:1;fill-rule:nonzero;stroke:none"
             d="m 4985.3,3276.62 c 0,21.02 0,194.65 0,215.67 22.35,0 258.21,0 258.21,0 l 0,95.89 c 0,0 -235.86,0 -258.21,0 0,20.51 0,165.4 0,185.94 22.5,0 273.99,0 273.99,0 l 0,96.92 -385.86,0 0,-691.41 400.7,0 0,96.99 c 0,0 -266.25,0 -288.83,0" />
          <path
             id="path3175"
             style="fill:#fddf12;fill-opacity:1;fill-rule:nonzero;stroke:none"
             d="m 925.82,2572.75 c -43.242,38.83 -108.867,58.52 -195.039,58.52 -62.265,0 -118.593,-4.69 -167.578,-14.07 l -10.078,-1.95 0,-680.39 110.781,0 c 0,0 0,239.61 0,265.16 18.75,-2.86 38.75,-4.03 56.914,-4.03 88.555,0 164.063,27.39 212.578,76.96 37.227,39.33 55.899,90.07 55.899,151.09 0,60.39 -22.5,113.16 -63.477,148.71 z M 722.852,2290.02 c -24.258,0 -43.321,1.87 -58.946,4.96 0,18.4 0,219.96 0,238.32 13.906,2.18 37.422,4.96 68.75,4.96 54.141,0 144.922,-15.51 144.922,-119.1 0,-82.15 -56.406,-129.14 -154.726,-129.14" />
          <path
             id="path3177"
             style="fill:#fddf12;fill-opacity:1;fill-rule:nonzero;stroke:none"
             d="m 1643.71,2133.06 c -16.37,67.46 -45.31,110.32 -86.44,132.93 70.31,32.23 114.45,94.96 114.45,170.9 0,54.77 -20.63,104.3 -56.64,135.86 -44.03,39.84 -108.28,58.52 -202.03,58.52 -57.97,0 -122.19,-5.79 -167.66,-15.08 l -9.84,-2.11 0,-679.22 110.78,0 c 0,0 0,266.25 0,288.87 17.77,0 68.67,0 68.67,0 70.47,0 103.75,-32.46 122.5,-119.81 20.16,-93.67 33.87,-143.91 44.92,-162.9 l 3.52,-6.16 116.21,0 -9.03,17.96 c -12.57,25.16 -29.1,93.52 -49.41,180.24 z m -83.79,294.92 c 0,-69.45 -54.14,-114.25 -137.93,-114.25 0,0 -57.42,0 -75.66,0 0,21.29 0,202.77 0,220.04 12.34,2.34 35.78,5.54 72.65,5.54 64.38,0 140.94,-19.33 140.94,-111.33" />
          <path
             id="path3179"
             style="fill:#fddf12;fill-opacity:1;fill-rule:nonzero;stroke:none"
             d="m 2145.7,2626.5 -234.84,-691.49 115.15,0 c 0,0 64.06,194.07 69.22,209.69 15.94,0 202.89,0 218.67,0 5.24,-15.39 71.17,-209.69 71.17,-209.69 l 118.21,0 -236.02,691.49 -121.56,0 z m 141.87,-389.77 c -26.25,0 -140.07,0 -166.17,0 9.22,27.35 59.77,176.61 59.77,176.61 9.29,27.14 15.47,54.8 22.26,82.3 6.41,-22.81 23.52,-83.36 23.52,-83.36 0,0 45.08,-130.31 60.62,-175.55" />
          <path
             id="path3181"
             style="fill:#fddf12;fill-opacity:1;fill-rule:nonzero;stroke:none"
             d="m 3492.88,2215.95 c 0,0 114.14,0 134.46,0 0,-20.74 0,-163.28 0,-177.97 -21.96,-8.59 -58.83,-13.9 -102.35,-13.9 -150.86,0 -244.76,98.36 -244.76,256.64 0,157.73 97.97,255.7 255.62,255.7 57.35,0 102.42,-8.67 142.19,-27.42 l 12.97,-6.13 29.06,94.02 -9.69,4.69 c -30.47,14.61 -93.98,31.72 -172.5,31.72 -223.36,0 -373.36,-143.21 -373.36,-356.57 0,-104.06 35.24,-197.73 96.64,-257.11 64.54,-61.64 148.91,-91.52 257.97,-91.52 104.69,0 187.35,28.63 210.16,37.46 l 7.97,3 0,341.42 -244.38,0 0,-94.03" />
          <path
             id="path3183"
             style="fill:#fddf12;fill-opacity:1;fill-rule:nonzero;stroke:none"
             d="m 4222.73,2626.5 -234.93,-691.49 115.24,0 c 0,0 63.98,194.07 69.22,209.69 15.94,0 202.89,0 218.67,0 5.23,-15.39 71.09,-209.69 71.09,-209.69 l 118.21,0 -235.86,691.49 -121.64,0 z m 141.72,-389.77 c -26.1,0 -140,0 -166.1,0 9.22,27.35 59.85,176.61 59.85,176.61 9.06,26.64 16.17,53.36 22.81,80.27 6.79,-24.22 22.97,-81.33 22.97,-81.33 0,0 44.92,-130.31 60.47,-175.55" />
          <path
             id="path3185"
             style="fill:#fddf12;fill-opacity:1;fill-rule:nonzero;stroke:none"
             d="m 925.82,1328.09 c -43.164,38.79 -108.789,58.48 -195.039,58.48 -62.031,0 -118.437,-4.73 -167.578,-14.03 l -10.078,-1.95 0,-680.391 110.781,0 c 0,0 0,239.727 0,265.274 18.75,-2.93 38.75,-4.063 56.914,-4.063 88.555,0 164.063,27.266 212.578,76.88 37.227,39.33 55.899,90.15 55.899,151.09 0,60.39 -22.5,113.2 -63.477,148.71 z M 722.852,1045.32 c -24.258,0 -43.321,1.87 -58.946,5 0,18.43 0,220 0,238.32 13.906,2.22 37.422,4.96 68.75,4.96 54.141,0 144.922,-15.47 144.922,-119.22 0,-81.99 -56.406,-129.06 -154.726,-129.06" />
          <path
             id="path3187"
             style="fill:#fddf12;fill-opacity:1;fill-rule:nonzero;stroke:none"
             d="m 1643.71,888.402 c -16.37,67.539 -45.31,110.352 -86.44,132.968 70.31,32.23 114.45,94.88 114.45,170.82 0,54.85 -20.63,104.38 -56.64,135.9 -43.99,39.84 -108.24,58.48 -202.03,58.48 -57.85,0 -122.07,-5.71 -167.58,-15.08 l -9.92,-2.03 0,-679.261 110.78,0 c 0,0 0,266.25 0,288.906 17.77,0 68.67,0 68.67,0 70.47,0 103.75,-32.539 122.5,-119.882 19.77,-92.305 34.02,-143.985 44.92,-162.852 l 3.52,-6.172 116.21,0 -9.03,17.891 c -12.57,25.312 -29.1,93.633 -49.41,180.312 z m -83.79,294.958 c 0,-69.45 -54.14,-114.29 -137.93,-114.29 0,0 -57.42,0 -75.66,0 0,21.25 0,202.73 0,220.04 12.34,2.38 35.78,5.5 72.65,5.5 64.38,0 140.94,-19.29 140.94,-111.25" />
          <path
             id="path3189"
             style="fill:#fddf12;fill-opacity:1;fill-rule:nonzero;stroke:none"
             d="m 2145.7,1381.76 -234.84,-691.405 115.15,0 c 0,0 64.06,194.063 69.22,209.727 15.94,0 202.89,0 218.67,0 5.24,-15.469 71.17,-209.727 71.17,-209.727 l 118.21,0 -236.02,691.405 -121.56,0 z m 141.87,-389.686 c -26.25,0 -140.07,0 -166.17,0 9.22,27.386 59.77,176.526 59.77,176.526 9.29,27.26 15.47,54.88 22.26,82.42 6.41,-22.81 23.52,-83.36 23.52,-83.36 0,-0.12 45.08,-130.31 60.62,-175.586" />
          <path
             id="path3191"
             style="fill:#fddf12;fill-opacity:1;fill-rule:nonzero;stroke:none"
             d="m 3492.88,971.332 c 0,0 114.14,0 134.46,0 0,-20.742 0,-163.242 0,-177.93 -21.88,-8.711 -58.75,-13.984 -102.35,-13.984 -150.86,0 -244.76,98.281 -244.76,256.642 0,157.77 97.97,255.66 255.62,255.66 57.27,0 102.42,-8.67 142.19,-27.5 l 12.97,-6.01 29.06,93.9 -9.53,4.73 c -30.55,14.65 -94.06,31.84 -172.66,31.84 -223.36,0 -373.36,-143.29 -373.36,-356.64 0,-103.989 35.24,-197.661 96.64,-257.036 64.54,-61.641 148.91,-91.524 257.97,-91.524 104.69,0 187.35,28.594 210.16,37.383 l 7.97,3.086 0,341.331 -244.38,0 0,-93.948" />
        </g>
      </g>
      <g
         id="g4364"
         transform="matrix(0.38715973,0,0,0.38715676,-313.58795,65.573272)">
        <path
           id="path2984"
           style="fill:#ed192d;fill-opacity:1;fill-rule:evenodd;stroke:none"
           d="m 755.70117,581.08643 c 0,0 0,-320.2837 0,-320.2837 0,0 -160.13965,0 -160.13965,0 0,0 -160.1416,159.96875 -160.1416,159.96875 0,0 0,160.31495 0,160.31495 0,0 320.28125,0 320.28125,0 z" />
        <path
           id="path2986"
           style="fill:#254aa5;fill-opacity:1;fill-rule:evenodd;stroke:none"
           d="m 595.56152,420.94434 c 0,0 0,-160.14161 0,-160.14161 0,0 -160.1416,160.14161 -160.1416,160.14161 0,0 160.1416,0 160.1416,0 z" />
        <path
           id="path2988"
           style="fill:#f7d903;fill-opacity:1;fill-rule:nonzero;stroke:none"
           d="m 509.63184,470.93262 c 13.68847,0 21.39257,12.65136 21.39257,28.86718 0,14.60791 -7.2456,28.40821 -21.39257,28.40821 -14.14698,0 -21.50684,-13.45606 -21.50684,-28.86719 0,-15.4126 7.82129,-28.4082 21.39209,-28.4082 0,0 0.11475,0 0.11475,0 z m -0.69043,-11.3877 c -21.96534,0 -35.76856,16.79395 -35.76856,39.44971 0,23.69287 15.0669,40.60107 36.91992,40.60107 22.54151,0 35.8833,-17.13769 35.8833,-39.22021 0,-25.99317 -15.75683,-40.83057 -36.91748,-40.83057 0,0 -0.11718,0 -0.11718,0 z" />
        <path
           id="path2990"
           style="fill:#f7d903;fill-opacity:1;fill-rule:nonzero;stroke:none"
           d="m 595.20117,501.29541 c 1.83985,-0.57373 4.02539,-0.69043 6.90137,-0.69043 10.58105,0 17.02051,5.29102 17.02051,14.26123 0,8.51172 -5.97852,13.11279 -15.75684,13.11279 -3.91016,0 -6.66894,-0.34423 -8.16504,-0.69043 0,0 0,-25.99316 0,-25.99316 z m -14.03222,36 c 5.17675,0.91992 12.19287,1.60986 21.62402,1.60986 10.35156,0 17.82617,-2.18554 22.77148,-6.32519 4.59961,-3.7959 7.5918,-9.89258 7.5918,-17.13819 0,-7.35986 -2.30078,-13.34179 -6.55566,-17.48144 -5.75,-5.63525 -14.49317,-8.39697 -24.49805,-8.39697 -2.64649,0 -4.94434,0.11718 -6.90137,0.57568 0,0 0,-29.32812 0,-29.32812 0,0 -14.03222,0 -14.03222,0 0,0 0,76.48437 0,76.48437 z" />
        <path
           id="path2992"
           style="fill:#f7d903;fill-opacity:1;fill-rule:nonzero;stroke:none"
           d="m 682.49512,501.29541 c 1.83984,-0.57373 4.02539,-0.69043 6.90136,-0.69043 10.58008,0 17.02149,5.29102 17.02149,14.26123 0,8.51172 -5.98047,13.11279 -15.75781,13.11279 -3.91016,0 -6.66993,-0.34423 -8.16504,-0.69043 0,0 0,-25.99316 0,-25.99316 z m -14.03223,36 c 5.17676,0.91992 12.19336,1.60986 21.62402,1.60986 10.35059,0 17.82618,-2.18554 22.77051,-6.32519 4.60156,-3.7959 7.5918,-9.89258 7.5918,-17.13819 0,-7.35986 -2.29981,-13.34179 -6.55469,-17.48144 -5.75,-5.63525 -14.49316,-8.39697 -24.49805,-8.39697 -2.64648,0 -4.94531,0.11718 -6.90136,0.57568 0,0 0,-29.32812 0,-29.32812 0,0 -14.03223,0 -14.03223,0 0,0 0,76.48437 0,76.48437 z" />
        <path
           id="path2994"
           style="fill:#f7d903;fill-opacity:1;fill-rule:nonzero;stroke:none"
           d="m 684.26953,331.43652 c 0,0 -6.09668,19.0918 -6.09668,19.0918 -1.49512,4.71387 -2.75879,10.00293 -3.91113,14.49121 0,0 -0.22852,0 -0.22852,0 -1.14941,-4.48828 -2.30078,-9.88965 -3.68164,-14.49121 0,0 -5.97851,-19.0918 -5.97851,-19.0918 0,0 19.89648,0 19.89648,0 z M 662.07227,320.7373 c 0,0 -6.66993,-21.96582 -6.66993,-21.96582 0,0 -14.60742,0 -14.60742,0 0,0 24.8418,77.51856 24.8418,77.51856 0,0 18.05664,0 18.05664,0 0,0 25.18848,-77.51856 25.18848,-77.51856 0,0 -15.18067,0 -15.18067,0 0,0 -7.0166,21.96582 -7.0166,21.96582 0,0 -24.6123,0 -24.6123,0 z" />
      </g>
      <g
         id="g3359"
         transform="matrix(0.19753087,0,0,-0.19753087,138.9891,290.54482)">
        <rect
           id="rect3323"
           height="540"
           width="810"
           x="0"
           y="0"
           style="fill:#003399" />
        <g
           id="g3325"
           transform="matrix(30,0,0,30,405,270)"
           style="fill:#ffcc00">
          <use
             id="use3327"
             y="-6"
             xlink:href="#s"
             x="0"
             width="1"
             height="1" />
          <use
             id="use3329"
             y="6"
             xlink:href="#s"
             x="0"
             width="1"
             height="1" />
          <g
             id="l">
            <use
               id="use3332"
               x="-6"
               xlink:href="#s"
               y="0"
               width="1"
               height="1" />
            <use
               id="use3334"
               transform="matrix(-0.80901699,-0.58778525,0.58778525,-0.80901699,-3,-5.1961524)"
               xlink:href="#s"
               x="0"
               y="0"
               width="1"
               height="1" />
            <use
               id="use3336"
               transform="matrix(-0.80901699,0.58778525,-0.58778525,-0.80901699,-5.1961524,-3)"
               xlink:href="#s"
               x="0"
               y="0"
               width="1"
               height="1" />
            <use
               id="use3338"
               transform="matrix(0.30901699,0.95105652,-0.95105652,0.30901699,-5.1961524,3)"
               xlink:href="#s"
               x="0"
               y="0"
               width="1"
               height="1" />
            <use
               id="use3340"
               transform="matrix(0.30901699,0.95105652,-0.95105652,0.30901699,-3,5.1961524)"
               xlink:href="#s"
               x="0"
               y="0"
               width="1"
               height="1" />
          </g>
          <use
             id="use3342"
             transform="scale(-1,1)"
             xlink:href="#l"
             x="0"
             y="0"
             width="1"
             height="1" />
        </g>
      </g>
      <text
         xml:space="preserve"
         style="font-size:20.12240791px;font-style:normal;font-variant:normal;font-weight:normal;font-stretch:normal;fill:#003399;fill-opacity:1;stroke:none;font-family:Marck Script;-inkscape-font-specification:Marck Script"
         x="218.74338"
         y="-164.94481"
         id="text4372"
         transform="scale(1,-1)"><tspan
           sodipodi:role="line"
           id="tspan4374"
           x="218.74338"
           y="-164.94481"
           style="font-style:normal;font-variant:normal;font-weight:normal;font-stretch:normal;text-align:center;text-anchor:middle;fill:#003399;fill-opacity:1;font-family:DejaVu Sans;-inkscape-font-specification:DejaVu Sans">EVROPSKÁ UNIE</tspan></text>
    </g>
  </g>
</svg>
